<svg xmlns="http://www.w3.org/2000/svg" viewBox="0 0 500 500"><g id="freepik--background-simple--inject-4"><path d="M434.5,349c-4.55,4.15-9.22,8.16-13.93,12-32.56,26.73-70.25,46.5-112.8,50.32l-3.14.26c-79.5,5.83-78-89-87.52-112.32S46.45,259.2,18.74,203C-5,155,24.27,111,66.15,85.93c28.92-17.29,61.7-27.79,94.29-35.62C257,27.1,360,30.12,437.82,99.32c9.45,8.4,16.72,17.28,24,27.52,20.34,28.59,33.82,62.71,34.85,98,1.43,49.21-25.92,90.86-61,123.11Z" style="fill:#31B44B"></path><path d="M434.5,349c-4.55,4.15-9.22,8.16-13.93,12-32.56,26.73-70.25,46.5-112.8,50.32l-3.14.26c-79.5,5.83-78-89-87.52-112.32S46.45,259.2,18.74,203C-5,155,24.27,111,66.15,85.93c28.92-17.29,61.7-27.79,94.29-35.62C257,27.1,360,30.12,437.82,99.32c9.45,8.4,16.72,17.28,24,27.52,20.34,28.59,33.82,62.71,34.85,98,1.43,49.21-25.92,90.86-61,123.11Z" style="fill:#fff;opacity:0.7000000000000001"></path></g><g id="freepik--Moutains--inject-4"><polygon points="406.86 252.91 406.86 371.51 273.55 371.51 274.45 252.91 275 251.76 299.42 200.42 311.09 175.88 313.47 170.89 340.66 113.71 341.22 114.89 378.07 192.37 406.86 252.91" style="fill:#dbdbdb"></polygon><polygon points="409.96 366.42 406.86 366.99 382.48 371.51 322.53 371.51 279.02 279.53 275 251.76 299.42 200.42 311.09 175.88 313.47 170.89 340.66 113.71 341.22 114.89 323.68 245.27 338.98 210.39 338.37 278.31 359.17 252 359.17 289.94 351.83 277.09 345.1 334.6 381.81 247.72 406.86 353.35 409.96 366.42" style="fill:#b8b8b8"></polygon><polygon points="311.09 175.88 309 180.27 332.86 152.26 340.82 185.3 350 157.16 359.79 169.96 363.43 161.59 341.22 114.89 340.66 113.71 313.47 170.89 311.09 175.88" style="fill:#fff;stroke:#263238;stroke-linecap:round;stroke-linejoin:round"></polygon><polygon points="406.86 252.91 406.86 371.51 273.55 371.51 274.45 252.91 275 251.76 299.42 200.42 311.09 175.88 313.47 170.89 340.66 113.71 341.22 114.89 378.07 192.37 406.86 252.91" style="fill:none;stroke:#263238;stroke-linecap:round;stroke-linejoin:round"></polygon><polygon points="473.18 391.26 448.01 374.35 444.47 405.81 420.48 396.37 414.59 430.97 373.69 404.24 339.09 404.24 341.05 369.24 379.55 286.46 381.29 282.73 403.97 233.97 422.06 268.58 425.16 276.02 429.51 286.46 473.18 391.26" style="fill:#dbdbdb"></polygon><polygon points="445.78 355.96 448.33 374.56 457.59 380.79 445.78 355.96" style="fill:#b8b8b8"></polygon><polygon points="420.48 396.37 439.46 403.84 437.2 396.6 430.33 385.15 435.48 377.71 434.5 349.02 416.02 374.85 414.88 319.9 396.56 356.53 406.28 238.39 403.97 233.97 381.29 282.73 379.55 286.46 341.05 369.24 339.09 404.24 373.69 404.24 414.59 430.97 420.48 396.37" style="fill:#b8b8b8"></polygon><polyline points="475.8 396.6 406.11 228.31 327.31 398.13" style="fill:none;stroke:#263238;stroke-linecap:round;stroke-linejoin:round"></polyline><polygon points="413.04 291.24 418.19 286.55 430.84 300.6 431.89 290.57 406.11 228.31 376.08 293.04 376.04 293.58 402.74 265.48 413.04 291.24" style="fill:#fff;stroke:#263238;stroke-linecap:round;stroke-linejoin:round"></polygon><polygon points="358.72 433.14 361.06 460.77 342.14 451.44 317.36 439.22 293.62 427.52 280.97 437.36 246.32 422.84 215.41 452.81 191.05 431.74 162.02 437.82 163.89 409.72 213.79 298.09 220.27 283.58 264.58 184.46 279.1 217.71 292.68 235.51 352.4 380.21 363.67 365.88 400.4 451.87 358.72 433.14" style="fill:#dbdbdb"></polygon><polygon points="271.67 356.63 260.05 341.95 267.39 268.52 233.74 335.22 263.11 209.78 264.97 185.34 264.58 184.46 220.27 283.58 213.79 298.09 163.89 409.72 162.02 437.82 191.05 431.74 215.41 452.81 246.32 422.84 256.75 427.21 259.44 384.78 280.24 400.08 277.79 341.95 271.67 356.63" style="fill:#b8b8b8"></polygon><polyline points="405.14 463.16 363.67 365.88 352.4 380.21 267.71 175.73 167.05 403.25" style="fill:none;stroke:#263238;stroke-linecap:round;stroke-linejoin:round"></polyline><polygon points="297.7 248.15 267.71 175.73 232.61 255.07 259.92 224.66 276.65 236.24 279.22 227.88 297.7 248.15" style="fill:#fff;stroke:#263238;stroke-linecap:round;stroke-linejoin:round"></polygon><polygon points="342.14 451.44 317.36 439.22 300.32 363.17 342.14 451.44" style="fill:#b8b8b8"></polygon></g><g id="freepik--Clouds--inject-4"><path d="M362.21,175.88H311.09l2.38-5h.15c2.38-.24,2.62-1.9,5.95-2.38s5.72,1.43,8.34.24,4.29-5.72,9.53-5,12.62,8.33,12.62,8.33c2.86,0,4.05-.71,7.15.48A14.13,14.13,0,0,1,362.21,175.88Z" style="fill:#263238;stroke:#263238;stroke-linecap:round;stroke-linejoin:round"></path><path d="M352.65,169.49s-7.39-7.63-12.63-8.34-6.91,3.81-9.53,5-5-.71-8.33-.24-3.58,2.15-6,2.39-4.05-1.43-6.67-1-4,3.34-5.48,3.34-3.81-1.67-6.43-1.67-6.67,2.38-6.67,2.38l-16.2,1.91H364.8a14.06,14.06,0,0,0-5-3.34C356.7,168.77,355.51,169.49,352.65,169.49Z" style="fill:#fff;stroke:#263238;stroke-linecap:round;stroke-linejoin:round"></path><path d="M444.62,150.19s-7.38-7.62-12.62-8.34-6.91,3.81-9.53,5-5-.72-8.34-.24-3.57,2.14-5.95,2.38-4.05-1.43-6.67-.95-4.05,3.33-5.48,3.33-3.81-1.67-6.43-1.67-6.67,2.39-6.67,2.39l-16.2,1.9h90a14.13,14.13,0,0,0-5-3.33C448.67,149.48,447.48,150.19,444.62,150.19Z" style="fill:#fff;stroke:#263238;stroke-linecap:round;stroke-linejoin:round"></path><path d="M399.11,313.65S385.88,300,376.48,298.71s-12.37,6.83-17.07,9-9-1.28-14.94-.43-6.4,3.85-10.67,4.27-7.26-2.56-11.95-1.7-7.26,6-9.82,6-6.83-3-11.52-3-12,4.27-12,4.27l-29,3.42H420.88a25.17,25.17,0,0,0-9-6C406.36,312.37,404.23,313.65,399.11,313.65Z" style="fill:#263238;stroke:#263238;stroke-linecap:round;stroke-linejoin:round"></path><path d="M404.15,311.13s-13.23-13.66-22.63-14.94-12.37,6.83-17.07,9-9-1.28-14.94-.43-6.4,3.85-10.67,4.27-7.26-2.56-11.95-1.7-7.26,6-9.82,6-6.83-3-11.52-3-12,4.27-12,4.27l-29,3.42H425.92a25.17,25.17,0,0,0-9-6C411.4,309.85,409.27,311.13,404.15,311.13Z" style="fill:#fff;stroke:#263238;stroke-linecap:round;stroke-linejoin:round"></path><path d="M429.51,286.46h-50l1.74-3.73a15.41,15.41,0,0,0,3.54,1.11c1.43,0,2.86-2.86,5.48-3.33s4.29,1.19,6.67.95,2.62-1.91,6-2.38,5.71,1.43,8.33.23,4.29-5.71,9.53-5a12.48,12.48,0,0,1,4.36,1.71Z" style="fill:#263238;stroke:#263238;stroke-linecap:round;stroke-linejoin:round"></path><path d="M435.67,279.51s-7.38-7.63-12.62-8.34-6.91,3.81-9.53,5-5-.71-8.34-.24-3.57,2.15-5.95,2.38-4.05-1.42-6.67-.95-4.05,3.34-5.48,3.34-3.81-1.67-6.43-1.67-6.67,2.38-6.67,2.38l-16.2,1.91h90a14.08,14.08,0,0,0-5-3.34C439.72,278.79,438.53,279.51,435.67,279.51Z" style="fill:#fff;stroke:#263238;stroke-linecap:round;stroke-linejoin:round"></path><path d="M299.07,298.09H213.79l6.48-14.51a10.11,10.11,0,0,0,5.45-.77c5.61-2.54,9.17-12.22,20.38-10.69s27,17.82,27,17.82c6.11,0,8.66-1.52,15.28,1A30.18,30.18,0,0,1,299.07,298.09Z" style="fill:#263238;stroke:#263238;stroke-linecap:round;stroke-linejoin:round"></path><path d="M276.71,286.84s-15.79-16.3-27-17.83-14.77,8.15-20.38,10.7-10.69-1.53-17.82-.51-7.64,4.58-12.74,5.09-8.66-3.05-14.26-2-8.66,7.13-11.71,7.13-8.15-3.57-13.76-3.57-14.26,5.1-14.26,5.1L110.16,295H302.69a30.06,30.06,0,0,0-10.7-7.13C285.37,285.31,282.83,286.84,276.71,286.84Z" style="fill:#fff;stroke:#263238;stroke-linecap:round;stroke-linejoin:round"></path><path d="M231.18,111.43s-15.79-16.3-27-17.83-14.77,8.15-20.38,10.7-10.69-1.53-17.83-.51-7.64,4.58-12.73,5.09-8.66-3-14.26-2S130.33,114,127.27,114s-8.15-3.57-13.75-3.57-14.26,5.1-14.26,5.1l-34.64,4.07H257.16a30.18,30.18,0,0,0-10.7-7.13C239.84,109.9,237.29,111.43,231.18,111.43Z" style="fill:#fff;stroke:#263238;stroke-linecap:round;stroke-linejoin:round"></path><path d="M442.54,433.88s-22.71-23.44-38.83-25.64-21.24,11.72-29.3,15.39-15.39-2.2-25.64-.74-11,6.6-18.32,7.33-12.45-4.4-20.51-2.93-12.46,10.26-16.85,10.26-11.72-5.13-19.78-5.13-20.52,7.32-20.52,7.32L203,445.6H479.9a43.24,43.24,0,0,0-15.38-10.25C455,431.68,451.33,433.88,442.54,433.88Z" style="fill:#fff;stroke:#263238;stroke-linecap:round;stroke-linejoin:round"></path></g><g id="freepik--Flag--inject-4"><line x1="340.66" y1="113.71" x2="340.66" y2="72.69" style="fill:none;stroke:#263238;stroke-linecap:round;stroke-linejoin:round"></line><path d="M366.8,106.76V99.17a10.75,10.75,0,0,1,3.89,3.59,5.09,5.09,0,0,1,.4,1A3.81,3.81,0,0,0,366.8,106.76Z" style="fill:#263238;stroke:#263238;stroke-linecap:round;stroke-linejoin:round"></path><path d="M350.4,77.24c-5.91.22-9-2.09-9.78-2.7v11.3l.2,13.1c1.76,2.77,14.12,2.77,21.19,2.77s9.08,2,9.08,2V79C367.31,75.48,357.21,77,350.4,77.24Z" style="fill:#31B44B;stroke:#263238;stroke-miterlimit:10"></path><path d="M371.09,80.09a6.09,6.09,0,0,0-3.54-1.2c-4.37,0-7.92,5-7.92,11.26s3.55,11.25,7.92,11.25a6.09,6.09,0,0,0,3.54-1.2Z" style="fill:#fff;stroke:#263238;stroke-linecap:round;stroke-linejoin:round"></path><path d="M371.09,103.73s-4.41-.33-4.29,3c.06,1.59,2,2.77,9.08,2.27s17.94,1.09,17.94,1.09L387,98l10.09-4A40.35,40.35,0,0,0,385,87.84,43.75,43.75,0,0,0,371.06,86Z" style="fill:#31B44B;stroke:#263238;stroke-miterlimit:10"></path><path d="M367.77,99.89V98.55A3.18,3.18,0,0,1,365.25,97a6.76,6.76,0,0,1-.91-3.32l1.65-.39a10.84,10.84,0,0,0,.23,1.63,3.33,3.33,0,0,0,.56,1.31,1.47,1.47,0,0,0,1.11.59,1.23,1.23,0,0,0,1.1-.38,2.09,2.09,0,0,0,.37-1.33,3.29,3.29,0,0,0-.42-1.75,10,10,0,0,0-1-1.4l-2.25-2.51a6.12,6.12,0,0,1-.71-1,4,4,0,0,1-.43-1.15,6,6,0,0,1-.14-1.39,3.67,3.67,0,0,1,.8-2.56,2.69,2.69,0,0,1,2.2-.81v-1.3l.58,0v1.3a3.29,3.29,0,0,1,1.21.44,2.85,2.85,0,0,1,.87.86,4.11,4.11,0,0,1,.56,1.27,9,9,0,0,1,.28,1.72l-1.59.37a9.35,9.35,0,0,0-.2-1.46,2.58,2.58,0,0,0-.52-1.12,1.34,1.34,0,0,0-1.06-.44,1.5,1.5,0,0,0-1.08.38,1.64,1.64,0,0,0-.39,1.22,2.92,2.92,0,0,0,.21,1.19,4.13,4.13,0,0,0,.67,1l2.26,2.51a10.14,10.14,0,0,1,.93,1.25,6.89,6.89,0,0,1,.71,1.5,5.78,5.78,0,0,1,.27,1.81,4.51,4.51,0,0,1-.35,1.84,2.6,2.6,0,0,1-2.41,1.62v1.36Z" style="fill:#263238"></path><line x1="360.59" y1="44.54" x2="360.59" y2="57.41" style="fill:none;stroke:#263238;stroke-linecap:round;stroke-linejoin:round"></line><line x1="360.59" y1="120.51" x2="360.59" y2="133.38" style="fill:none;stroke:#263238;stroke-linecap:round;stroke-linejoin:round"></line><line x1="312.8" y1="62.31" x2="327.5" y2="73.95" style="fill:none;stroke:#263238;stroke-linecap:round;stroke-linejoin:round"></line><line x1="405.93" y1="62.31" x2="391.22" y2="73.95" style="fill:none;stroke:#263238;stroke-linecap:round;stroke-linejoin:round"></line><line x1="405.93" y1="128.88" x2="391.22" y2="117.24" style="fill:none;stroke:#263238;stroke-linecap:round;stroke-linejoin:round"></line><line x1="312.19" y1="128.88" x2="326.89" y2="117.24" style="fill:none;stroke:#263238;stroke-linecap:round;stroke-linejoin:round"></line><line x1="321.38" y1="95.39" x2="301.77" y2="95.39" style="fill:none;stroke:#263238;stroke-linecap:round;stroke-linejoin:round"></line><line x1="421.85" y1="95.39" x2="402.25" y2="95.39" style="fill:none;stroke:#263238;stroke-linecap:round;stroke-linejoin:round"></line></g><g id="freepik--Floor--inject-4"><path d="M155.83,470.29l7.23-16.77s2.89-7.52,4.63-9.83a59.76,59.76,0,0,0,4.05-6.95L181,422.86l9.26-28.36-25.69,8.57-19.75,15.19-27,13.29-93.42,19" style="fill:#fff;stroke:#263238;stroke-linecap:round;stroke-linejoin:round"></path><polyline points="25.35 379.46 139.34 379.46 190.26 394.5 185.05 402.6 174.63 406.08 163.06 408.97 153.8 422.28 146.28 428.64 121.4 432.69 22.45 454.68" style="fill:#fff;stroke:#263238;stroke-linecap:round;stroke-linejoin:round"></polyline><polyline points="163.06 408.97 164.22 430.38 157.85 442.53 153.22 450.05 140.64 470.29" style="fill:#fff;stroke:#263238;stroke-linecap:round;stroke-linejoin:round"></polyline><polyline points="146.28 428.64 144.55 446.58 135.87 451.79 124.29 458.73" style="fill:#fff;stroke:#263238;stroke-linecap:round;stroke-linejoin:round"></polyline></g><g id="freepik--Character--inject-4"><path d="M131.71,403.64c0,3.49-18.78,6.31-41.95,6.31s-42-2.82-42-6.31,18.79-6.31,42-6.31S131.71,400.16,131.71,403.64Z" style="opacity:0.21"></path><path d="M155.09,170.75s2.66-2.18,4.23-3.26,4.36-4.12,4.6-5.33,1.57-8.47,1.57-8.47a9.75,9.75,0,0,0-2.78.24c-1.81.37-3.39.85-3.39.85l-4.84,5.81Z" style="fill:#fff;stroke:#263238;stroke-miterlimit:10"></path><path d="M161.62,154.18s-.36,2,.36,2.66,4.84.72,5.45-.49.73-3.26,0-3.26S161.62,154.18,161.62,154.18Z" style="fill:#fff;stroke:#263238;stroke-miterlimit:10"></path><path d="M164.65,157.81s-5.69.24-5.93,1-.61,2.18-.24,2.42,6.29.25,6.89-.48S166.82,157.08,164.65,157.81Z" style="fill:#fff;stroke:#263238;stroke-miterlimit:10"></path><path d="M164.28,161.07s-5.68.24-5.93,1-.6,2.18-.24,2.42,6.29.24,6.9-.48S166.46,160.35,164.28,161.07Z" style="fill:#fff;stroke:#263238;stroke-miterlimit:10"></path><path d="M162.62,164.19s-4.3.18-4.48.73-.46,1.65-.19,1.83,4.76.18,5.21-.37S164.26,163.64,162.62,164.19Z" style="fill:#fff;stroke:#263238;stroke-miterlimit:10"></path><path d="M187.87,149.63l-39,5.89-.48,0H148a3.25,3.25,0,0,1-.11-6.44l37.41-5.63,1.59-.24a3.24,3.24,0,1,1,1,6.4Z" style="fill:#fff;stroke:#263238;stroke-miterlimit:10"></path><path d="M185.1,149.94,148,155.54a3.25,3.25,0,0,1-.11-6.44l37.41-5.63a3.29,3.29,0,0,1-.22,6.47Z" style="fill:#b5b5b5;stroke:#263238;stroke-miterlimit:10"></path><path d="M121.57,158.67a2.31,2.31,0,0,1-.34-4.6L148,150a2.32,2.32,0,1,1,.69,4.58l-26.81,4Z" style="fill:#b5b5b5;stroke:#263238;stroke-miterlimit:10"></path><path d="M148.31,172.45s3.15-10.65,3.39-12.59,2.42-3.63,2.42-3.63,4-3.26,5-5,1.82.36,1.82,1.82-4.72,5.93-4.72,5.93a41.2,41.2,0,0,1,.84,6,12.66,12.66,0,0,1-1.57,4.84l-2.3,6.65Z" style="fill:#fff;stroke:#263238;stroke-miterlimit:10"></path><polygon points="147.1 170.87 156.18 177.53 152.91 183.09 144.56 176.08 147.1 170.87" style="fill:#fff;stroke:#263238;stroke-miterlimit:10"></polygon><path d="M144.8,174.87l11.26,9.07s-23.6,34.85-25.05,35.82a15.91,15.91,0,0,1-4.24,1.57l-5.56-17.18Z" style="fill:#31B44B;stroke:#263238;stroke-miterlimit:10"></path><polygon points="112.38 179.1 117.94 182.61 115.04 182.61 113.59 183.94 110.92 183.7 109.96 180.55 112.38 179.1" style="fill:#fff;stroke:#263238;stroke-linecap:round;stroke-linejoin:round"></polygon><path d="M119.39,142.8s3.39,8.47,2.91,9.32-1.21,2.18-1,3,3.63,5,3.27,5.69a43.16,43.16,0,0,1-2.67,3.51s-1.21,5.44-1,5.93,1.33,1.81.6,3.14S118.91,175,117.7,175a22.34,22.34,0,0,1-2.78-.24l-3.51,6.65-19.72-7.5,3-6.66a18.11,18.11,0,0,1-.61-11c1.58-6.17,13.44-13.31,18.4-14S119.39,142.8,119.39,142.8Z" style="fill:#fff;stroke:#263238;stroke-linecap:round;stroke-linejoin:round"></path><path d="M114.8,144.37s3.14,4.12,2.54,5.33a28.29,28.29,0,0,1-3.63,4.11s1,4.24.48,4.72a2.79,2.79,0,0,1-2.3.61c-.48-.25-3.51-6-5.44-4.72s-2.3,4.47-1.46,6.29a17.19,17.19,0,0,0,1.58,2.78s-4.84,4.48-7.5,5-4.72.73-5.45-.36-5.2-10.89-5.32-17.79,4.47-12.7,7.26-14,8.1-1.45,8.1-1.45.37-3.15,4.12-3,7.62,3.15,7.62,3.15-1.21-4.36,1.69-1.82,5,4,4.36,8S114.8,144.37,114.8,144.37Z" style="fill:#263238;stroke:#263238;stroke-linecap:round;stroke-linejoin:round"></path><polyline points="106.57 163.49 109.23 164.22 110.32 166.4" style="fill:none;stroke:#263238;stroke-linecap:round;stroke-linejoin:round"></polyline><path d="M117.7,175a20,20,0,0,1-2.42-1.45c-1-.73-3.15-2.3-3.15-2.3l1.21,5.8,1.58-2.29Z" style="fill:#263238;stroke:#263238;stroke-linecap:round;stroke-linejoin:round"></path><polygon points="86.97 172.08 85.88 177.16 109.83 183.82 121.45 193.86 112.13 182.73 110.68 179.22 86.97 172.08" style="fill:#fff;stroke:#263238;stroke-linecap:round;stroke-linejoin:round"></polygon><path d="M113.59,183.94s6.71,2.32,11.83,16.19,19.49,69.1,19.49,69.1l-7.93,2a325.38,325.38,0,0,0-9.74-39.46C121,212.51,113.59,183.94,113.59,183.94Z" style="fill:#31B44B;stroke:#263238;stroke-linecap:round;stroke-linejoin:round"></path><path d="M138.13,266.33s-2.71,29.34-3.85,43.4-12.35,52.07-13.68,57.2-1.9,20.9-1.9,20.9l1.9,1.33v1.52l6.46,4.18s9.5,3.43,7.41,5.52-5.89,1.33-11.21,1.33-11-1.9-12.73-1.9a24.39,24.39,0,0,1-4.18-.19c-.76-.19-2.47.57-2.47-1.14a81,81,0,0,0-1.33-8.18S101,388,101,386.5s.38-6.65,1.14-8.55,1.9-9.5,1.9-9.5l1.14-19.95-6.65,14.44-5.7,23.94s2.85.95,2.85,1.71-.57,4.18-.57,4.18,3.61,3.61,5.32,5a109.72,109.72,0,0,0,10.45,5.89c.57.19,3,2.28,1.52,3.23s-9.12,1.52-15.2,1.52-13.88-2.66-13.88-2.66l-1.71,1.14-6.27-1.52c-.76-.19-1.14-3.61-1-4.94a22.71,22.71,0,0,0,0-3.62c0-.76-.57-4.75-.19-6.08s1.71-4.94,1.71-4.94,2.85-30.78,3.61-35.53S85.44,335,85.44,335s2.67-18.63,3-22.24.57-17.29.57-17.29a96.33,96.33,0,0,1-4.38-14.25c-1.14-6.08-.19-7.41-.19-7.41L87,264.31Z" style="fill:#263238;stroke:#263238;stroke-linecap:round;stroke-linejoin:round"></path><path d="M108.91,343.51s5.79-19.29,6.75-25.08,7.4-27.66,7.4-27.66l6.11-4.18" style="fill:none;stroke:#8c8c8c;stroke-linecap:round;stroke-linejoin:round"></path><path d="M86.72,340.62s13.83-8.36,21.87-22.83" style="fill:none;stroke:#8c8c8c;stroke-linecap:round;stroke-linejoin:round"></path><path d="M110.51,309.1s-8.36,12.87-14.15,18" style="fill:none;stroke:#8c8c8c;stroke-linecap:round;stroke-linejoin:round"></path><path d="M125.2,203.18s9.8,46.64,11.12,52.91,1.81,10.24,1.81,10.24a49.91,49.91,0,0,1-6.1.82c-1.82,0-5.78-.16-5.78-.16l-6-66.37Z" style="fill:#fff;stroke:#263238;stroke-linecap:round;stroke-linejoin:round"></path><path d="M83,175.35v5.08s-5.56,22.27-4.84,29.28,7.63,29.53,7.63,29.53-1.7,2.78-1.82,3.14a18.16,18.16,0,0,0,.61,3.15L78.38,276s23.59,5,39.08,3.63S134,277.47,134,277.47,132,248.68,132.1,241.9s-5.57-35.45-6.9-38.72-3.75-9.32-3.75-9.32l-11.62-10Z" style="fill:#31B44B;stroke:#263238;stroke-linecap:round;stroke-linejoin:round"></path><path d="M100.88,211.65S88.06,223.27,86.24,224" style="fill:none;stroke:#263238;stroke-linecap:round;stroke-linejoin:round"></path><path d="M104.63,211.29s-3.63,5.93-5.2,8.59" style="fill:none;stroke:#263238;stroke-linecap:round;stroke-linejoin:round"></path><line x1="103.06" y1="220.48" x2="99.19" y2="227.86" style="fill:none;stroke:#263238;stroke-linecap:round;stroke-linejoin:round"></line><path d="M126.53,167s.37-8.59.73-10a82.5,82.5,0,0,1,3.51-7.62s1.93-1.58,2.78-1,.73,2,.73,2,1.45-2,2.3-1.81,1.69,1.94,1.69,1.94a5.48,5.48,0,0,1,2.66-.13c1,.37,1.7.13,1.45,1.21s-2.66,7-2.66,7,5.08-1.93,5.08-1-.84,1.34-1.93,2.06-5.08,2.78-5.08,2.78l-3,3-.48,2.78Z" style="fill:#fff;stroke:#263238;stroke-linecap:round;stroke-linejoin:round"></path><path d="M127,171.48l-.49-4.48a10.63,10.63,0,0,1,3.51-.48,34.83,34.83,0,0,1,5.45,1.33l.24,4.6Z" style="fill:#fff;stroke:#263238;stroke-linecap:round;stroke-linejoin:round"></path><path d="M85.88,189.87s4.84-1.33,6.29-1.45,32.67,2.78,32.67,2.78l1.57-21.29a8.36,8.36,0,0,1,3.51.12l8.83,2.54s.49,22,.49,27v8.11a19.7,19.7,0,0,1-2.91.84c-1.33.25-34.36,3-40.41,3S83.46,212,82,205.84" style="fill:#31B44B;stroke:#263238;stroke-linecap:round;stroke-linejoin:round"></path></g></svg>
